<?xml version="1.0" encoding="utf-8"?>
<!-- Generator: Adobe Illustrator 13.0.1, SVG Export Plug-In . SVG Version: 6.00 Build 14948)  -->
<!DOCTYPE svg PUBLIC "-//W3C//DTD SVG 1.1//EN" "http://www.w3.org/Graphics/SVG/1.1/DTD/svg11.dtd">
<svg version="1.1" xmlns="http://www.w3.org/2000/svg" xmlns:xlink="http://www.w3.org/1999/xlink"
	 xml:space="preserve">
<g id="tracks_regular">
	<g>
		<line fill="none" stroke="#000000" stroke-width="3" x1="510.753" y1="504.504" x2="510.753" y2="637.627"/>
		<path fill="none" stroke="#000000" stroke-width="3" d="M510.753,504.504c0-3.73-3.467-6.75-7.75-6.75"/>
		<line fill="none" stroke="#000000" stroke-width="3" x1="503.003" y1="497.754" x2="484.065" y2="497.753"/>
	</g>
	<line fill="none" stroke="#000000" stroke-width="3" x1="500.003" y1="642.877" x2="356.44" y2="642.877"/>
	<line fill="none" stroke="#000000" stroke-width="3" x1="346.307" y1="640.002" x2="239.754" y2="539.997"/>
	<line fill="none" stroke="#000000" stroke-width="3" x1="298.262" y1="543.503" x2="229.254" y2="631.252"/>
	<line fill="none" stroke="#000000" stroke-width="3" x1="198.754" y1="589.753" x2="198.754" y2="343.16"/>
	<line fill="none" stroke="#000000" stroke-width="3" x1="240.317" y1="499.253" x2="291.254" y2="498.753"/>
	<line fill="none" stroke="#000000" stroke-width="3" x1="303.504" y1="497.753" x2="470.378" y2="497.753"/>
	<line fill="none" stroke="#000000" stroke-width="3" x1="274.128" y1="341.379" x2="586.813" y2="341.379"/>
	<line fill="none" stroke="#000000" stroke-width="3" x1="249.192" y1="415.753" x2="357.754" y2="415.253"/>
	<line fill="none" stroke="#000000" stroke-width="3" x1="363.255" y1="411.503" x2="363.255" y2="485.066"/>
	<line fill="none" stroke="#000000" stroke-width="3" x1="201.755" y1="457.753" x2="238.942" y2="420.566"/>
	<line fill="none" stroke="#000000" stroke-width="3" x1="195.253" y1="460.253" x2="13.754" y2="460.753"/>
	<line fill="none" stroke="#000000" stroke-width="3" x1="13.256" y1="459.503" x2="13.754" y2="265.004"/>
	<line fill="none" stroke="#000000" stroke-width="3" x1="17.286" y1="258.317" x2="101.922" y2="172.536"/>
	<line fill="none" stroke="#000000" stroke-width="3" x1="105.253" y1="95.255" x2="145.722" y2="54.224"/>
	<line fill="none" stroke="#000000" stroke-width="3" x1="150.941" y1="51.762" x2="446.472" y2="51.249"/>
	<line fill="none" stroke="#000000" stroke-width="3" x1="192.492" y1="101.943" x2="426.376" y2="337.004"/>
	<line fill="none" stroke="#000000" stroke-width="3" x1="110.754" y1="98.005" x2="185.192" y2="98.005"/>
	<line fill="none" stroke="#000000" stroke-width="3" x1="268.253" y1="104.755" x2="428.254" y2="248.518"/>
	<line fill="none" stroke="#000000" stroke-width="3" x1="259.253" y1="54.256" x2="259.752" y2="102.255"/>
	<line fill="none" stroke="#000000" stroke-width="3" x1="356.379" y1="53.755" x2="356.379" y2="185.13"/>
	<line fill="none" stroke="#000000" stroke-width="3" x1="201.13" y1="334.563" x2="359.004" y2="180.88"/>
	<line fill="none" stroke="#000000" stroke-width="3" x1="203.755" y1="537.128" x2="229.442" y2="537.128"/>
	<line fill="none" stroke="#000000" stroke-width="3" x1="237.504" y1="307.629" x2="266.253" y2="337.135"/>
	<line fill="none" stroke="#000000" stroke-width="3" x1="474.503" y1="491.753" x2="370.317" y2="491.753"/>
	<line fill="none" stroke="#000000" stroke-width="3" x1="471.128" y1="494.003" x2="471.128" y2="406.879"/>
	<line fill="none" stroke="#000000" stroke-width="3" x1="434.003" y1="400.629" x2="464.003" y2="400.629"/>
	<line fill="none" stroke="#000000" stroke-width="3" x1="511.754" y1="344.004" x2="511.754" y2="14.756"/>
	<path fill="none" stroke="#000000" stroke-width="3" d="M819.46,226.764c-168.647,0.129-337.647,0.129-506.706,0.49"/>
	<line fill="none" stroke="#000000" stroke-width="3" x1="430.253" y1="53.255" x2="430.253" y2="402.754"/>
	<line fill="none" stroke="#000000" stroke-width="3" x1="591.253" y1="130.255" x2="591.253" y2="340.754"/>
	<line fill="none" stroke="#000000" stroke-width="3" x1="712.252" y1="143.192" x2="712.252" y2="354.379"/>
	<line fill="none" stroke="#000000" stroke-width="3" x1="789.126" y1="63.13" x2="715.627" y2="136.335"/>
	<line fill="none" stroke="#000000" stroke-width="3" x1="861.126" y1="64.756" x2="665.754" y2="65.255"/>
	<line fill="none" stroke="#000000" stroke-width="3" x1="662.754" y1="65.755" x2="609.253" y2="14.255"/>
	<line fill="none" stroke="#000000" stroke-width="3" x1="431.255" y1="50.255" x2="463.212" y2="17.756"/>
	<line fill="none" stroke="#000000" stroke-width="3" x1="609.253" y1="14.255" x2="472.002" y2="13.756"/>
	<line fill="none" stroke="#000000" stroke-width="3" x1="590.253" y1="128.255" x2="460.815" y2="128.255"/>
	<line fill="none" stroke="#000000" stroke-width="3" x1="453.254" y1="57.224" x2="453.254" y2="121.507"/>
	<line fill="none" stroke="#000000" stroke-width="3" x1="436.628" y1="538.233" x2="480.479" y2="492.254"/>
	<line fill="none" stroke="#000000" stroke-width="3" x1="597.563" y1="457.253" x2="888.876" y2="457.253"/>
	<line fill="none" stroke="#000000" stroke-width="3" x1="890.001" y1="451.628" x2="890.001" y2="285.504"/>
	<line fill="none" stroke="#000000" stroke-width="3" x1="832.626" y1="229.254" x2="890.001" y2="285.504"/>
	<path fill="none" stroke="#000000" stroke-width="3" d="M851.475,201.34c7.445-7.604,14.503-15.582,22.054-23.085"/>
	<path fill="none" stroke="#000000" stroke-width="3" d="M605.377,451.417c30.736-33.229,62.821-65.172,94.953-97.042
		c32.323-32.061,64.633-64.163,96.178-96.992c2.007-2.088,3.999-4.19,5.972-6.312"/>
	<line fill="none" stroke="#000000" stroke-width="3" x1="864.126" y1="177.88" x2="864.126" y2="63.505"/>
	<line fill="none" stroke="#000000" stroke-width="3" x1="887.751" y1="286.629" x2="765.876" y2="407.148"/>
	<line fill="none" stroke="#000000" stroke-width="3" x1="608.752" y1="456.052" x2="652.114" y2="411.878"/>
	<line fill="none" stroke="#000000" stroke-width="3" x1="662.002" y1="406.254" x2="767.376" y2="406.254"/>
	<line fill="none" stroke="#000000" stroke-width="3" x1="885.876" y1="453.503" x2="846.876" y2="414.503"/>
	<line fill="none" stroke="#000000" stroke-width="3" x1="308.004" y1="540.878" x2="430.253" y2="540.878"/>
	<line fill="none" stroke="#000000" stroke-width="3" x1="12.755" y1="463.253" x2="76.255" y2="533.253"/>
	<line fill="none" stroke="#000000" stroke-width="3" x1="197.755" y1="462.253" x2="141.567" y2="532.605"/>
	<line fill="none" stroke="#000000" stroke-width="3" x1="80.755" y1="536.753" x2="131.88" y2="537.252"/>
	<path fill="none" stroke="#000000" stroke-width="3" d="M471.128,407.38c0-3.731-3.466-6.75-7.749-6.75"/>
	<path fill="none" stroke="#000000" stroke-width="3" d="M453.191,57.976c0-3.731-3.467-6.75-7.75-6.75"/>
	<path fill="none" stroke="#000000" stroke-width="3" d="M453.253,121.507c0,3.731,3.467,6.75,7.75,6.75"/>
	<path fill="none" stroke="#000000" stroke-width="3" d="M363.252,485.067c0,3.731,3.469,6.75,7.752,6.75"/>
	<path fill="none" stroke="#000000" stroke-width="3" d="M651.504,412.754c0,0,5.423-6.5,12.125-6.5"/>
	<path fill="none" stroke="#000000" stroke-width="3" d="M712.252,143.661c0.234-5.156,4.688-8.438,4.688-8.438"/>
	<path fill="none" stroke="#000000" stroke-width="3" d="M462.942,17.943c0,0,4.081-4.125,9.125-4.125"/>
	<path fill="none" stroke="#000000" stroke-width="3" d="M266.004,336.879c0,0,3.634,4.5,8.124,4.5"/>
	<path fill="none" stroke="#000000" stroke-width="3" d="M198.739,343.16c0-4.954,2.906-8.963,2.906-8.963"/>
	<line fill="none" stroke="#000000" stroke-width="3" x1="365.004" y1="413.378" x2="427.628" y2="343.254"/>
	<path fill="none" stroke="#000000" stroke-width="3" d="M238.755,420.754c0,0,4.752-5.001,10.625-5.001"/>
	<line fill="none" stroke="#000000" stroke-width="3" x1="201.004" y1="462.004" x2="232.254" y2="493.503"/>
	<path fill="none" stroke="#000000" stroke-width="3" d="M231.786,493.096c2.969,2.938,6.813,6.093,8.813,6.188"/>
	<path fill="none" stroke="#000000" stroke-width="3" d="M142.004,532.191c0,0-4.752,5.001-10.625,5.001"/>
	<path fill="none" stroke="#000000" stroke-width="3" d="M228.578,537.189c0,0,6.855-0.775,11.354,3"/>
	<path fill="none" stroke="#000000" stroke-width="3" d="M309.337,540.939c0,0-6.855-0.775-11.353,3"/>
	<path fill="none" stroke="#000000" stroke-width="3" d="M357.369,642.748c0,0-6.855,0.775-11.355-3"/>
	<path fill="none" stroke="#000000" stroke-width="3" d="M428.077,540.819c0,0,6.677,0.37,9.665-3.642"/>
	<path fill="none" stroke="#000000" stroke-width="3" d="M13.821,265.583c0.724-3.352,2.267-6.693,4.994-8.873"/>
	<line fill="none" stroke="#000000" stroke-width="3" x1="104.943" y1="99.693" x2="104.943" y2="163.817"/>
	<path fill="none" stroke="#000000" stroke-width="3" d="M104.88,163.505c0,5.216-3.375,9.437-3.375,9.437"/>
	<path fill="none" stroke="#000000" stroke-width="3" d="M192.646,102.177c0,0-3.501-4.172-7.828-4.172"/>
	<path fill="none" stroke="#000000" stroke-width="3" d="M145.489,54.552c0,0,2.516-2.813,5.625-2.813"/>
	<path fill="none" stroke="#000000" stroke-width="3" d="M812.721,206.224c-3.729,0-6.75,3.467-6.75,7.75"/>
	<line fill="none" stroke="#000000" stroke-width="3" x1="812.721" y1="206.224" x2="841.063" y2="206.191"/>
	<path fill="none" stroke="#000000" stroke-width="3" d="M805.938,213.691c0,9.511,0,19.022,0,28.533"/>
	<path fill="none" stroke="#000000" stroke-width="3" d="M851.604,201.17c0,0-4.883,5.042-10.916,5.042"/>
	<path fill="none" stroke="#000000" stroke-width="3" d="M805.896,242.129c0,5.066-3.834,9-3.75,9.167"/>
	<line fill="none" stroke="#000000" stroke-width="3" x1="206.813" y1="533.338" x2="293.813" y2="505.671"/>
	<path fill="none" stroke="#000000" stroke-width="3" d="M835.054,183.891c-3.729,0-6.75,3.467-6.75,7.75"/>
	<line fill="none" stroke="#000000" stroke-width="3" x1="835.054" y1="183.891" x2="863.396" y2="183.858"/>
	<path fill="none" stroke="#000000" stroke-width="3" d="M828.271,191.358c0,9.511,0,19.022,0,28.533"/>
	<path fill="none" stroke="#000000" stroke-width="3" d="M596.313,336.004"/>
	<path fill="none" stroke="#000000" stroke-width="3" d="M483.146,402.337"/>
	<path fill="none" stroke="#000000" stroke-width="3" d="M483.146,402.337"/>
	<path fill="none" stroke="#000000" stroke-width="3" d="M504.438,400.254h-18.375c0,0-0.997,0.125-3.875,0.125
		c-2.625,0-5.125,2.75-5.125,7.375c0,4.25,0.065,3.25,0.065,3.25v82.999"/>
	<line fill="none" stroke="#000000" stroke-width="3" x1="511.313" y1="397.505" x2="511.313" y2="350.338"/>
	<path fill="none" stroke="#000000" stroke-width="3" d="M512.063,410.754l0.125,35.5c0,0,0,0.875,0,3.875
		c0,7,1.125,7.625,7.875,7.875c1.813,0.067,4.5,0,4.5,0s48.249,0.149,63.75,0.001"/>
	<polyline fill="none" stroke="#000000" stroke-width="3" points="859.813,176.504 859.813,147.504 859.813,141.504 
		852.813,134.504 845.813,134.504 814.313,134.504 809.313,134.504 800.813,143.004 722.313,221.504 	"/>
	<line fill="none" stroke="#000000" stroke-width="3" x1="433.563" y1="343.754" x2="508.313" y2="399.004"/>
</g>
<g id="tracks_foot">
	<path fill="none" stroke="#000000" stroke-width="3" stroke-linecap="round" stroke-dasharray="0.1,4" d="M193.63,605.377
		c0,0-46.5,54.75,22.5,34.5"/>
	
		<line fill="none" stroke="#000000" stroke-width="3" stroke-linecap="round" stroke-dasharray="0.1,4" x1="296.754" y1="497.378" x2="358.254" y2="418.754"/>
	<path fill="none" stroke="#000000" stroke-width="3" stroke-linecap="round" stroke-dasharray="0.1,4" d="M509.753,228.255
		c0,13.266-34.887,24-78,24"/>
	<path fill="none" stroke="#000000" stroke-width="3" stroke-linecap="round" stroke-dasharray="0.1,4" d="M280.254,183.755
		c0,0.276,32.203,0.5,72,0.5"/>
	<path fill="none" stroke="#000000" stroke-width="3" stroke-linecap="round" stroke-dasharray="0.1,4" d="M363.255,181.255
		c0-20.175,29.071-36.5,64.999-36.5"/>
	<path fill="none" stroke="#000000" stroke-width="3" stroke-linecap="round" stroke-dasharray="0.1,4" d="M475.253,119.755
		c-19.999-44.499,29.501-28.5,29.501-28.5"/>
	<path fill="none" stroke="#000000" stroke-width="3" stroke-linecap="round" stroke-dasharray="0.1,4" d="M259.544,109.006
		c7.322,31.533-13.25,29.976-29.29,22.58"/>
	
		<line fill="none" stroke="#000000" stroke-width="3" stroke-linecap="round" stroke-dasharray="0.1,4" x1="591.479" y1="444.004" x2="591.146" y2="350.671"/>
	<path fill="none" stroke="#000000" stroke-width="3" stroke-linecap="round" stroke-dasharray="0.1,5" d="M838.146,220.337
		c0,0,7.159-7.229,10.334-8c3.563-0.866,11.698,0.217,14.333-2.333c2.696-2.611,1.156-12.99,1.156-12.99"/>
	
		<line stroke="#000000" stroke-width="3" stroke-linecap="round" stroke-dasharray="0.1,4" x1="766.313" y1="399.504" x2="718.813" y2="346.004"/>
	
		<line fill="none" stroke="#000000" stroke-width="3" stroke-linecap="round" stroke-dasharray="0.1,4" x1="370.313" y1="416.504" x2="424.313" y2="404.504"/>
	<polyline fill="none" stroke="#000000" stroke-width="3" stroke-linecap="round" stroke-dasharray="0.1,4" points="
		276.313,424.504 276.313,477.504 296.313,492.004 	"/>
	
		<line stroke="#2D0121" stroke-width="3" stroke-linecap="round" stroke-dasharray="0.1,4" x1="773.313" y1="452.004" x2="838.313" y2="416.004"/>
	<polyline fill="none" stroke="#000000" stroke-width="3" stroke-linecap="round" stroke-dasharray="0.1,4" points="421.479,253.67 
		349.813,252.67 325.976,228.362 	"/>
	
		<line fill="none" stroke="#000000" stroke-width="3" stroke-linecap="round" stroke-dasharray="0.1,4" x1="598.896" y1="341.754" x2="703.313" y2="341.421"/>
	
		<line stroke="#000000" stroke-width="3" stroke-linecap="round" stroke-dasharray="0.1,4" x1="713.51" y1="446.713" x2="713.176" y2="345.51"/>
	
		<line stroke="#000000" stroke-width="3" stroke-linecap="round" stroke-dasharray="0.1,4" x1="766.772" y1="450.521" x2="709.374" y2="450.808"/>
	
		<line stroke="#000000" stroke-width="3" stroke-linecap="round" stroke-dasharray="0.1,4" x1="769.333" y1="456.578" x2="769.176" y2="408.76"/>
	
		<line fill="none" stroke="#000000" stroke-width="3" stroke-linecap="round" stroke-dasharray="0.1,4" x1="484.31" y1="362.001" x2="510.063" y2="343.504"/>
	
		<line fill="none" stroke="#000000" stroke-width="3" stroke-linecap="round" stroke-dasharray="0.1,4" x1="434.561" y1="397.751" x2="460.313" y2="379.254"/>
</g>
<g id="tracks_train">
	<path fill="none" stroke="#000000" stroke-width="3" stroke-dasharray="15,4" d="M613.813,14.004c0,0,159.001-2,199-0.5
		c12.38,0.464,41,42,41,42"/>
	<path fill="none" stroke="#000000" stroke-width="3" stroke-dasharray="15,4" d="M875.479,64.337c0,0,48,0,62.667,0.333
		c2.589,0.059,6.9,3.774,8.667,5.667c9.333,10,26.466,28.602,34.666,38.667c1.315,1.615,4.947,4.584,5,6.667
		c1,39.333,0.334,117,0.667,154.667c0.019,2.069-3.782,4.962-5.333,6.333c-34.349,30.366-131,128.333-131,128.333"/>
	<path fill="none" stroke="#000000" stroke-width="3" stroke-dasharray="15,4" d="M844.146,420.004c0,0,0.001,72,0.667,96
		c0.108,3.895-7.771,10.984-11.667,11c-81.333,0.334-245,0.667-326.333,0.334c-2.955-0.012-7.667-1-11-4.334
		c-4.126-4.128-16-17-16-17"/>
</g>
<g id="stops">
	<circle fill="#A6A6A6" stroke="#000000" id="stop_8" cx="474.878" cy="498.128" r="12.756"/>
	<circle fill="#A6A6A6" stroke="#000000" id="stop_2" cx="510" cy="642.69" r="12.756"/>
	<circle fill="#A6A6A6" stroke="#000000" id="stop_4" cx="275.054" cy="572.165" r="12.756"/>
	<circle fill="#A6A6A6" stroke="#000000" id="stop_1" cx="222.278" cy="636.52" r="12.756"/>
	<circle fill="#A6A6A6" stroke="#000000" id="stop_3" cx="197.934" cy="600.377" r="12.756"/>
	<circle fill="#A6A6A6" stroke="#000000" id="stop_5" cx="198.447" cy="537.758" r="12.756"/>
	<circle fill="#A6A6A6" stroke="#000000" id="stop_49" cx="296.754" cy="497.378" r="12.756"/>
	<circle fill="#A6A6A6" stroke="#000000" id="stop_7" cx="199.68" cy="459.969" r="12.756"/>
	<circle fill="#A6A6A6" stroke="#000000" id="stop_10" cx="277.866" cy="415.361" r="12.756"/>
	<circle fill="#A6A6A6" stroke="#000000" id="stop_11" cx="362.379" cy="415.253" r="12.756"/>
	<circle fill="#A6A6A6" stroke="#000000" id="stop_22" cx="236.379" cy="305.754" r="12.756"/>
	<circle fill="#A6A6A6" stroke="#000000" id="stop_6" cx="13.256" cy="459.503" r="12.756"/>
	<circle fill="#A6A6A6" stroke="#000000" id="stop_36" cx="105.658" cy="96.571" r="12.756"/>
	<circle fill="#A6A6A6" stroke="#000000" id="stop_34" cx="218.005" cy="126.88" r="12.756"/>
	<circle fill="#A6A6A6" stroke="#000000" id="stop_42" cx="259.629" cy="51.13" r="12.756"/>
	<circle fill="#A6A6A6" stroke="#000000" id="stop_47" cx="259.595" cy="99.175" r="12.756"/>
	<circle fill="#A6A6A6" stroke="#000000" id="stop_30" cx="276.762" cy="184.55" r="12.756"/>
	<circle fill="#A6A6A6" stroke="#000000" id="stop_31" cx="356.754" cy="183.13" r="12.756"/>
	<circle fill="#A6A6A6" stroke="#000000" id="stop_37" cx="356.004" cy="95.755" r="12.756"/>
	<circle fill="#A6A6A6" stroke="#000000" id="stop_43" cx="356.262" cy="51.571" r="12.756"/>
	<circle fill="#A6A6A6" stroke="#000000" id="stop_24" cx="314.22" cy="223.362" r="12.756"/>
	<circle fill="#A6A6A6" stroke="#000000" id="stop_17" cx="430.628" cy="341.379" r="12.756"/>
	<circle fill="#A6A6A6" stroke="#000000" id="stop_25" cx="429.754" cy="249.254" r="12.756"/>
	<circle fill="#A6A6A6" stroke="#000000" id="stop_26" cx="512.22" cy="226.175" r="12.756"/>
	<circle fill="#A6A6A6" stroke="#000000" id="stop_32" cx="430.907" cy="146.321" r="12.756"/>
	<circle fill="#A6A6A6" stroke="#000000" id="stop_44" cx="429.878" cy="51.505" r="12.756"/>
	<circle fill="#A6A6A6" stroke="#000000" id="stop_48" cx="485.378" cy="126.505" r="12.756"/>
	<circle fill="#A6A6A6" stroke="#000000" id="stop_38" cx="512.003" cy="101.38" r="12.756"/>
	<circle fill="#A6A6A6" stroke="#000000" id="stop_45" cx="512.074" cy="14.238" r="12.756"/>
	<circle fill="#A6A6A6" stroke="#000000" id="stop_46" cx="609.502" cy="13.256" r="12.756"/>
	<circle fill="#A6A6A6" stroke="#000000" id="stop_35" cx="591.127" cy="126.88" r="12.755"/>
	<circle fill="#A6A6A6" stroke="#000000" id="stop_27" cx="590.752" cy="225.504" r="12.755"/>
	<circle fill="#A6A6A6" stroke="#000000" id="stop_18" cx="511.253" cy="341.754" r="12.756"/>
	<circle fill="#A6A6A6" stroke="#000000" id="stop_19" cx="590.377" cy="342.129" r="12.755"/>
	<circle fill="#A6A6A6" stroke="#000000" id="stop_12" cx="429.282" cy="400.55" r="12.756"/>
	<circle fill="#A6A6A6" stroke="#000000" id="stop_20" cx="712.906" cy="340.674" r="12.756"/>
	<circle fill="#A6A6A6" stroke="#000000" id="stop_28" cx="712.719" cy="224.237" r="12.756"/>
	<circle fill="#A6A6A6" stroke="#000000" id="stop_9" cx="595.636" cy="458.424" r="12.756"/>
	<circle fill="#A6A6A6" stroke="#000000" id="stop_13" cx="767.001" cy="457.628" r="12.756"/>
	<circle fill="#A6A6A6" stroke="#000000" id="stop_15" cx="768.876" cy="404.004" r="12.756"/>
	<circle fill="#A6A6A6" stroke="#000000" id="stop_14" cx="890.531" cy="457.049" r="12.756"/>
	<circle fill="#A6A6A6" stroke="#000000" id="stop_16" cx="843.876" cy="411.878" r="12.756"/>
	<circle fill="#A6A6A6" stroke="#000000" id="stop_21" cx="830.969" cy="342.299" r="12.756"/>
	<circle fill="#A6A6A6" stroke="#000000" id="stop_23" cx="890.001" cy="284.379" r="12.756"/>
	<circle fill="#A6A6A6" stroke="#000000" id="stop_29" cx="828.501" cy="225.504" r="12.756"/>
	<circle fill="#A6A6A6" stroke="#000000" id="stop_33" cx="863.969" cy="184.258" r="12.756"/>
	<circle fill="#A6A6A6" stroke="#000000" id="stop_41" cx="864.239" cy="64.55" r="12.756"/>
	<circle fill="#A6A6A6" stroke="#000000" id="stop_40" cx="789.126" cy="63.13" r="12.756"/>
	<circle fill="#A6A6A6" stroke="#000000" id="stop_39" cx="668.344" cy="65.154" r="12.756"/>
	<circle fill="#A6A6A6" stroke="#000000" id="stop_50" cx="78.756" cy="536.003" r="12.756"/>
	<circle fill="#A6A6A6" stroke="#000000" id="stop_51" cx="512.216" cy="401.984" r="12.756"/>
</g>
</svg>
